<svg xmlns="http://www.w3.org/2000/svg" xml:space="preserve" viewBox="0 0 200 200"><path d="M22.4 162.9c-5.2-2.2-5-5.1-5.2-11.9-.5-18.4.2-33.7.3-51 .1-8.1-1.6-11.8 4.7-14 7.4-2.6 14.3-6.1 21.3-9 1.6-.7 4.6-.2 6 .7 4 2.7 7.6 6 11.9 9.5L38.1 97.5c2.1 1 3.5 1.8 5 2.4 17.7 7.5 58.6 23.4 58.6 23.4s39.6-16.8 60.4-25.6c-8.3-3.6-15.7-6.9-23.9-10.4 4.9-3.9 9.1-7.4 13.5-10.7.7-.5 2.5-.5 3.4-.1 8.3 3.5 16.6 6.9 24.6 10.8 1.6.8 3 3.3 3 5 .2 21.4.1 42.8.2 64.2 0 3.2-1.9 4.8-5 6.1-14.9 6.3-75.7 32.1-75.7 32.1s-65.4-25.8-79.8-31.8" style="fill:#e94e1b"/><path d="M114.8 5.3c2.2 0 4 2 4.3 4.7.1.6.1 1.2.1 1.8.1 13.5 0 27 0 41.2 5.2 0 10.2-.1 15.2.1.7 0 1.3.3 2 .6 1.2.6 1.8 2.2 1.3 3.6-.3 1-.6 1.9-1.2 2.5-11 12.8-22.2 25.4-33.2 38.1-2.5 2.9-4.2 3.1-6.8 0-10.9-12.7-22-25.2-32.9-37.8-.5-.5-.8-1.2-1.1-2-.8-1.9.1-4.1 1.7-4.7.5-.2 1-.3 1.6-.4 4.6-.2 9.3-.1 14.4-.1V33.6c0-7.5-.1-14.9 0-22.4 0-.5 0-.9.1-1.4.3-2.6 2.1-4.6 4.3-4.6z" style="fill:#009640"/></svg>